<svg xmlns="http://www.w3.org/2000/svg" xmlns:xlink="http://www.w3.org/1999/xlink" id="Capa_1" x="0px" y="0px" viewBox="0 0 645.1 628.7" style="enable-background:new 0 0 645.1 628.7;" xml:space="preserve"><style type="text/css">	.st0{fill:#00608B;}	.st1{fill:#FFFFFF;}	.st2{fill:#4BEF8F;}</style><circle class="st0" cx="322.6" cy="314.4" r="252.3"></circle><g id="Group_398" transform="translate(8235 6720)">	<g>		<path id="Path_1" class="st1" d="M-8076.9-6512.9h21.2l14.1,51.7h0.4l12.9-51.7h20.9l12.8,51.6h0.4l14.2-51.6h21.1l-26.4,84.1   h-18.1l-14-55.2h-0.2l-14.6,55.2h-18.2L-8076.9-6512.9z"></path>		<path id="Path_2" class="st1" d="M-7956.3-6436c-5.3-5.9-8.1-13.7-7.7-21.7c-0.3-7.9,2.4-15.6,7.5-21.6c4.7-5.5,11.7-8.6,18.9-8.5   c6.2-0.2,12.1,2.5,16,7.2l0.2-0.1v-6.1h18.6v58h-17.7v-6l-0.2-0.1c-3.9,4.8-9.8,7.5-16,7.2   C-7944.1-6427.5-7951.3-6430.5-7956.3-6436z M-7924.1-6447.9c2.4-2.7,3.7-6.2,3.6-9.8c0.1-3.6-1.1-7.1-3.5-9.8   c-2.2-2.5-5.4-4-8.7-3.9c-3.4-0.1-6.7,1.3-8.9,3.8c-4.6,5.8-4.7,14-0.1,19.9c2.3,2.5,5.6,3.9,9,3.7   C-7929.4-6444-7926.3-6445.4-7924.1-6447.9L-7924.1-6447.9z"></path>		<path id="Path_3" class="st1" d="M-7883.9-6432.6c-3.3-4-5-9.2-4.6-14.4v-24.8h-6.5v-14.9h6.5v-18.6l18.6-1.9v20.5h14v14.9h-14   v21.3c0,4.3,1.5,6.5,4.4,6.5c2,0,3.9-0.4,5.7-1.3l4.6,13.6c-5,2.7-10.6,4-16.2,3.9C-7876.1-6427.5-7880.6-6429.3-7883.9-6432.6z"></path>		<path id="Path_4" class="st1" d="M-7794-6452.9h-39.5c0.4,3,2.1,5.7,4.6,7.5c2.7,1.8,6,2.7,9.2,2.6c5.2-0.1,10.1-2.4,13.5-6.3   l10.7,10.9c-5.6,7-14.3,10.4-26.1,10.4c-8.1,0.3-16-2.7-21.8-8.4c-12-11.4-12.5-30.4-1.1-42.4c5.8-6.1,14-9.5,22.4-9.3   c7.6-0.2,15,2.8,20.3,8.3c5.4,5.7,8.3,13.3,8,21.1C-7793.7-6457.1-7793.8-6455.2-7794-6452.9z M-7829.5-6470.7   c-2.1,1.7-3.4,4.2-3.9,6.8h21.7c-0.5-2.6-1.8-4.9-3.7-6.8c-1.9-1.7-4.3-2.6-6.9-2.5C-7824.9-6473.2-7827.5-6472.3-7829.5-6470.7   L-7829.5-6470.7z"></path>		<path id="Path_5" class="st1" d="M-7783.9-6486.8h18.5v8.1h0.2c3.6-5.7,9.9-9.1,16.7-9.1h0.7v20c-2.4-0.2-3.8-0.2-4.4-0.2   c-3.6-0.2-7.2,1.1-9.8,3.6c-2.4,2.6-3.6,6-3.4,9.5v26.1h-18.5V-6486.8z"></path>	</g>	<g>		<path id="Path_6" class="st1" d="M-8076.9-6392.5h20.3v66.5h35v17.7h-55.2V-6392.5z"></path>		<path id="Path_7" class="st1" d="M-7980.1-6366.4h18.5v6.7h0.2c4.3-5.1,10.7-8,17.4-7.8c13.8,0,20.7,8.1,20.7,24.3v34.7h-18.5   v-30.2c0.3-3.4-0.5-6.7-2.3-9.6c-1.8-1.9-4.4-2.9-7-2.7c-3-0.1-5.9,1.1-7.8,3.4c-2.1,2.9-3.1,6.5-2.8,10v29.2h-18.5   L-7980.1-6366.4z"></path>		<path id="Path_8" class="st1" d="M-7912.7-6395.6h18.3v50.1h0.2l16.9-20.9h21.5l-19.6,23.1l20.1,34.8h-20.5l-12.9-22.8l-5.8,6.4   v16.4h-18.3V-6395.6z"></path>		<path id="Path_9" class="st1" d="M-7797.1-6332.5h-39.5c0.4,3,2.1,5.7,4.6,7.5c2.7,1.8,6,2.7,9.2,2.6c5.2-0.1,10.1-2.4,13.5-6.3   l10.7,10.9c-5.6,7-14.3,10.4-26.1,10.4c-8.1,0.3-16-2.7-21.8-8.4c-12-11.4-12.5-30.4-1.1-42.4c5.8-6.1,14-9.5,22.4-9.3   c7.6-0.2,15,2.8,20.3,8.3c5.4,5.7,8.3,13.3,8,21.1C-7796.8-6336.7-7796.9-6334.8-7797.1-6332.5z M-7832.6-6350.3   c-2.1,1.7-3.4,4.2-3.9,6.8h21.7c-0.5-2.6-1.8-4.9-3.7-6.8c-1.9-1.7-4.3-2.6-6.9-2.5C-7828-6352.8-7830.6-6351.9-7832.6-6350.3   L-7832.6-6350.3z"></path>		<path id="Path_10" class="st1" d="M-7783.1-6315.6c-5.3-6-8-13.7-7.6-21.7c-0.3-7.9,2.4-15.6,7.5-21.6c4.7-5.5,11.7-8.6,18.9-8.5   c6.3-0.2,12.4,2.4,16.6,7.2h0.1v-35.4h18.6v87.2h-17.7v-6.2h-0.2c-4,4.9-10.1,7.6-16.5,7.2   C-7770.8-6307.1-7778-6310.1-7783.1-6315.6z M-7750.5-6327.4c2.5-2.7,3.8-6.2,3.6-9.9c0.1-3.6-1.1-7.1-3.6-9.8   c-4.7-5-12.6-5.2-17.6-0.5c-0.1,0.1-0.3,0.3-0.4,0.4c-4.7,5.7-4.7,14-0.1,19.8c2.3,2.5,5.6,3.9,8.9,3.8   C-7756.1-6323.6-7752.8-6325-7750.5-6327.4z"></path>		<g id="Group_1" transform="translate(-8134.934 -6711.929)">			<path id="Path_11" class="st1" d="M132.4,351.1c4.9,0,8.8,4,8.8,8.8c0,4.9-4,8.8-8.8,8.8c-4.9,0-8.8-4-8.8-8.8    C123.6,355.1,127.6,351.1,132.4,351.1L132.4,351.1 M132.4,348.7c-6.2,0-11.2,5-11.2,11.2c0,6.2,5,11.2,11.2,11.2    c6.2,0,11.2-5,11.2-11.2v0C143.7,353.7,138.6,348.7,132.4,348.7L132.4,348.7z"></path>		</g>		<circle id="Ellipse_1" class="st2" cx="-8002.5" cy="-6384.4" r="11.2"></circle>		<circle id="Ellipse_2" class="st2" cx="-8002.5" cy="-6319.6" r="11.2"></circle>	</g></g></svg>